{"glyphs":{"0":{"ha":814,"x_min":62,"x_max":755,"o":"m 62 505 q 154 925 62 783 q 421 1068 246 1068 q 755 530 755 1068 q 661 123 755 264 q 397 -18 567 -18 q 150 116 237 -18 q 62 505 62 250 m 197 511 q 410 92 197 92 q 618 517 618 92 q 414 958 618 958 q 197 511 197 958 z "},"1":{"ha":814,"x_min":122,"x_max":730,"o":"m 730 0 l 128 0 l 128 115 l 363 115 l 363 912 l 122 842 l 122 964 l 496 1073 l 496 115 l 730 115 l 730 0 z "},"2":{"ha":814,"x_min":72,"x_max":720,"o":"m 711 0 l 72 0 l 72 115 l 377 420 q 546 620 503 546 q 589 772 589 693 q 538 909 589 861 q 393 957 488 957 q 125 838 253 957 l 125 972 q 414 1068 250 1068 q 638 991 556 1068 q 720 785 720 915 q 668 594 720 688 q 469 355 615 500 l 229 121 l 229 118 l 711 118 l 711 0 z "},"3":{"ha":814,"x_min":97,"x_max":711,"o":"m 97 176 q 340 92 205 92 q 512 145 449 92 q 576 288 576 199 q 290 488 576 488 l 203 488 l 203 597 l 286 597 q 539 785 539 597 q 346 958 539 958 q 138 883 235 958 l 138 1008 q 378 1068 241 1068 q 594 998 513 1068 q 675 816 675 928 q 465 551 675 610 l 465 548 q 645 468 579 536 q 711 298 711 399 q 609 69 711 156 q 338 -18 507 -18 q 97 38 189 -18 l 97 176 z "},"5":{"ha":814,"x_min":120,"x_max":717,"o":"m 120 161 q 340 92 226 92 q 515 153 449 92 q 582 314 582 214 q 514 471 582 415 q 319 526 447 526 q 153 517 257 526 l 153 1050 l 669 1050 l 669 933 l 276 933 l 276 636 q 365 640 335 640 q 624 555 531 640 q 717 323 717 471 q 617 77 717 171 q 342 -18 517 -18 q 120 26 195 -18 l 120 161 z "},"查":{"ha":1389,"x_min":19,"x_max":1369,"o":"m 66 1011 l 646 1011 l 646 1156 l 742 1156 l 742 1011 l 1329 1011 l 1329 920 l 827 920 q 1369 673 1041 757 q 1306 577 1333 621 q 1165 631 1233 602 l 1165 43 l 1062 43 l 1062 104 l 331 104 l 331 41 l 228 41 l 228 625 q 83 564 159 593 q 19 650 54 606 q 555 920 369 761 l 66 920 l 66 1011 m 34 -31 l 1355 -31 l 1355 -128 l 34 -128 l 34 -31 m 646 665 l 646 898 q 243 631 490 747 l 1164 631 q 742 895 914 738 l 742 665 l 646 665 m 331 197 l 1062 197 l 1062 322 l 331 322 l 331 197 m 1062 538 l 331 538 l 331 414 l 1062 414 l 1062 538 z "}," ":{"ha":411,"x_min":0,"x_max":0,"o":""},"看":{"ha":1389,"x_min":16,"x_max":1362,"o":"m 41 692 l 454 692 q 516 804 488 747 l 130 804 l 130 890 l 555 890 q 595 998 578 943 q 126 985 355 990 q 107 1078 118 1029 q 1248 1118 754 1087 l 1264 1026 q 709 1002 979 1013 q 669 890 691 946 l 1259 890 l 1259 804 l 630 804 q 572 692 603 747 l 1362 692 l 1362 606 l 517 606 q 445 504 484 554 l 1194 504 l 1194 -177 l 1096 -177 l 1096 -124 l 416 -124 l 416 -177 l 319 -177 l 319 355 q 81 136 212 241 q 16 229 54 178 q 397 606 248 397 l 41 606 l 41 692 m 416 -37 l 1096 -37 l 1096 59 l 416 59 l 416 -37 m 1096 417 l 416 417 l 416 322 l 1096 322 l 1096 417 m 416 143 l 1096 143 l 1096 238 l 416 238 l 416 143 z "},"最":{"ha":1389,"x_min":20,"x_max":1369,"o":"m 37 -6 q 170 8 103 1 l 170 524 l 20 524 l 20 606 l 1364 606 l 1364 524 l 656 524 l 656 72 q 787 92 722 81 q 788 5 785 67 q 656 -14 724 -4 l 656 -186 l 564 -186 l 564 -27 q 61 -102 331 -60 l 37 -6 m 225 1097 l 1164 1097 l 1164 661 l 1069 661 l 1069 692 l 320 692 l 320 661 l 225 661 l 225 1097 m 724 349 l 724 428 l 1263 428 l 1263 349 q 1081 60 1194 183 q 1369 -68 1197 -24 q 1308 -163 1333 -120 q 1013 -7 1133 -106 q 741 -178 896 -112 q 678 -93 718 -138 q 943 58 832 -34 q 782 349 830 179 l 724 349 m 320 771 l 1069 771 l 1069 858 l 320 858 l 320 771 m 1069 1018 l 320 1018 l 320 931 l 1069 931 l 1069 1018 m 1160 349 l 873 349 q 1011 121 916 216 q 1160 349 1105 220 m 564 58 l 564 150 l 262 150 l 262 19 q 564 58 415 37 m 262 416 l 564 416 l 564 524 l 262 524 l 262 416 m 262 229 l 564 229 l 564 337 l 262 337 l 262 229 z "},"新":{"ha":1389,"x_min":19,"x_max":1371,"o":"m 780 1041 q 1298 1097 1061 1044 l 1333 992 q 876 946 1065 957 l 876 630 l 1371 630 l 1371 538 l 1177 538 l 1177 -173 l 1077 -173 l 1077 538 l 876 538 l 876 471 q 677 -177 876 55 q 605 -90 644 -135 q 780 475 780 101 l 780 1041 m 57 432 l 334 432 l 334 561 l 431 561 l 431 432 l 697 432 l 697 345 l 431 345 l 431 -9 q 293 -153 431 -153 q 161 -151 235 -153 q 146 -48 156 -106 q 270 -56 225 -56 q 334 13 334 -56 l 334 345 l 57 345 l 57 432 m 19 686 l 237 686 q 129 843 180 777 l 202 895 q 317 741 247 840 l 241 686 l 420 686 q 556 896 494 792 l 652 842 q 527 686 587 757 l 732 686 l 732 599 l 19 599 l 19 686 m 62 1000 l 355 1000 q 289 1121 326 1056 l 376 1162 q 454 1022 418 1093 l 409 1000 l 697 1000 l 697 913 l 62 913 l 62 1000 m 161 284 l 254 241 q 109 -36 180 87 q 19 13 69 -12 q 161 284 85 116 m 552 277 q 685 87 628 174 l 598 28 q 472 224 538 132 l 552 277 z "},"版":{"ha":1389,"x_min":19,"x_max":1373,"o":"m 624 1046 q 1305 1103 1020 1053 l 1341 1003 q 719 956 958 960 l 719 732 l 1291 732 l 1291 650 q 1084 128 1237 325 q 1373 -62 1183 24 q 1290 -162 1324 -117 q 1018 51 1114 -55 q 709 -178 906 -65 q 643 -82 681 -131 q 958 129 847 17 q 783 642 823 318 l 719 642 l 719 435 q 544 -180 719 58 q 476 -93 511 -132 q 594 172 563 44 q 624 507 624 295 l 624 1046 m 456 -161 l 361 -161 l 361 353 l 211 353 q 98 -180 204 28 q 19 -101 68 -142 q 117 414 117 68 l 117 1107 l 212 1107 l 212 737 l 353 737 l 353 1143 l 448 1143 l 448 737 l 562 737 l 562 653 l 212 653 l 212 437 l 456 437 l 456 -161 m 1188 642 l 878 642 q 1023 206 912 376 q 1188 642 1141 368 z "},"本":{"ha":1389,"x_min":22,"x_max":1363,"o":"m 1363 174 q 1271 79 1328 139 q 747 728 943 332 l 747 191 l 1058 191 l 1058 96 l 747 96 l 747 -182 l 642 -182 l 642 96 l 320 96 l 320 191 l 642 191 l 642 728 q 111 63 469 383 q 22 144 58 113 q 599 814 408 461 l 52 814 l 52 915 l 642 915 l 642 1159 l 747 1159 l 747 915 l 1337 915 l 1337 814 l 786 814 q 1363 174 1002 409 z "},"的":{"ha":1389,"x_min":77,"x_max":1316,"o":"m 77 930 l 214 930 q 297 1155 264 1053 l 411 1122 q 328 930 368 1019 l 600 930 l 600 -150 l 491 -150 l 491 -44 l 186 -44 l 186 -159 l 77 -159 l 77 930 m 620 652 q 836 1155 747 854 l 949 1126 q 879 934 915 1024 l 1316 934 q 1289 56 1299 237 q 1065 -157 1279 -157 q 814 -149 941 -157 q 792 -28 806 -81 l 796 -28 q 1044 -47 932 -47 q 1177 83 1168 -47 q 1199 832 1192 286 l 836 832 q 713 602 777 701 q 620 652 677 627 m 186 58 l 491 58 l 491 401 l 186 401 l 186 58 m 491 828 l 186 828 l 186 498 l 491 498 l 491 828 m 739 559 l 822 621 q 1062 313 972 443 l 962 242 q 739 559 865 399 z "},"主":{"ha":1389,"x_min":33,"x_max":1356,"o":"m 33 2 l 636 2 l 636 393 l 140 393 l 140 496 l 636 496 l 636 805 l 87 805 l 87 908 l 1297 908 l 1297 805 l 753 805 l 753 496 l 1249 496 l 1249 393 l 753 393 l 753 2 l 1356 2 l 1356 -98 l 33 -98 l 33 2 m 585 1109 l 685 1160 q 804 969 768 1037 l 697 912 q 585 1109 624 1048 z "},"要":{"ha":1389,"x_min":20,"x_max":1367,"o":"m 133 863 l 473 863 l 473 1011 l 68 1011 l 68 1103 l 1321 1103 l 1321 1011 l 914 1011 l 914 863 l 1255 863 l 1255 459 l 1154 459 l 1154 511 l 233 511 l 233 459 l 133 459 l 133 863 m 20 378 l 425 378 q 503 508 467 442 l 608 466 q 549 378 578 421 l 1367 378 l 1367 286 l 1054 286 q 852 54 976 148 q 1275 -75 1053 -7 l 1215 -181 q 736 -18 987 -102 q 115 -189 499 -141 q 62 -85 91 -139 q 597 29 393 -55 q 258 142 432 84 q 363 286 314 213 l 20 286 l 20 378 m 412 185 q 722 93 561 141 q 926 286 854 173 l 484 286 q 412 185 448 234 m 574 597 l 814 597 l 814 777 l 574 777 l 574 597 m 1154 777 l 914 777 l 914 597 l 1154 597 l 1154 777 m 233 597 l 473 597 l 473 777 l 233 777 l 233 597 m 574 863 l 814 863 l 814 1011 l 574 1011 l 574 863 z "},"特":{"ha":1389,"x_min":4,"x_max":1369,"o":"m 18 349 q 269 435 144 392 l 269 753 l 161 753 q 94 517 134 625 q 4 577 52 547 q 103 1023 80 756 l 201 1007 q 178 844 192 922 l 269 844 l 269 1148 l 370 1148 l 370 844 l 540 844 l 540 753 l 370 753 l 370 470 q 522 524 447 497 q 537 421 529 465 q 370 361 458 393 l 370 -180 l 269 -180 l 269 323 q 38 234 159 281 l 18 349 m 491 673 l 864 673 l 864 874 l 548 874 l 548 966 l 864 966 l 864 1155 l 970 1155 l 970 966 l 1299 966 l 1299 874 l 970 874 l 970 673 l 1362 673 l 1362 581 l 491 581 l 491 673 m 519 398 l 1065 398 l 1065 542 l 1171 542 l 1171 398 l 1369 398 l 1369 306 l 1171 306 l 1171 7 q 1000 -163 1171 -162 q 815 -162 939 -165 q 795 -45 807 -109 q 979 -56 902 -56 q 1065 39 1065 -56 l 1065 306 l 519 306 l 519 398 m 595 212 l 674 275 q 842 79 772 168 l 755 13 q 595 212 678 117 z "},"性":{"ha":1389,"x_min":16,"x_max":1371,"o":"m 426 -33 l 865 -33 l 865 330 l 515 330 l 515 425 l 865 425 l 865 753 l 646 753 q 529 497 595 625 q 438 559 471 545 q 628 1061 574 805 l 735 1033 q 681 848 712 939 l 865 848 l 865 1147 l 972 1147 l 972 848 l 1329 848 l 1329 753 l 972 753 l 972 425 l 1302 425 l 1302 330 l 972 330 l 972 -33 l 1371 -33 l 1371 -128 l 426 -128 l 426 -33 m 214 1148 l 319 1148 l 319 888 l 377 920 q 498 714 448 810 l 414 660 q 319 838 366 760 l 319 -189 l 214 -189 l 214 1148 m 88 842 l 178 821 q 110 473 153 657 q 16 498 73 486 q 88 842 57 646 z "},"(":{"ha":464,"x_min":104,"x_max":450,"o":"m 332 -239 q 104 401 104 22 q 332 1050 104 780 l 450 1050 q 220 402 220 769 q 448 -239 220 36 l 332 -239 z "},"-":{"ha":601,"x_min":106,"x_max":505,"o":"m 505 365 l 106 365 l 106 467 l 505 467 l 505 365 z "},")":{"ha":464,"x_min":16,"x_max":363,"o":"m 17 -239 q 245 402 245 35 q 16 1050 245 770 l 134 1050 q 363 401 363 782 q 134 -239 363 20 l 17 -239 z "}}}
